<svg version="1.1" xmlns="http://www.w3.org/2000/svg" xmlns:xlink="http://www.w3.org/1999/xlink" x="0px" y="0px" width="354.5px"
	 height="314.1px" viewBox="0 0 354.5 314.1" style="overflow:visible;enable-background:new 0 0 354.5 314.1;"
	 xml:space="preserve">
<style type="text/css">
	.st0{fill:#1E3242;}
	.st1{fill:#0C45AD;}
</style>
<defs>
</defs>
<g>
	<g>
		<g>
			<path class="st0" d="M286.9,221l-43.7-60.3L199.9,221H154l66.8-91.3l-65-88.4h45.8L243.2,99l41.9-57.7h45.8l-64.6,89.2l66.4,90.6
				H286.9z"/>
		</g>
	</g>
	<g>
		<polygon class="st1" points="332.7,221 172,0.2 97.5,0 62.3,36 62.3,0 17.8,0 17.8,219.2 65.7,219.2 65.7,84.4 108.1,41.1 
			155.7,41.1 286.9,221 		"/>
	</g>
</g>
<g>
	<g>
		<path class="st0" d="M47.9,293.8v20.3H37.4v-17.8l-6.5-7.1H10.4v24.9H0v-63h38.3l9.2,9.3v19.4l-6.6,6.6L47.9,293.8z M10.4,280.6
			h23.2l3.6-3.6v-13.4l-3.6-3.6H10.4V280.6z"/>
	</g>
	<g>
		<path class="st0" d="M59.1,304v-42.7l10.2-10.2h31.1l10.2,10.2V304l-10.2,10.2H69.3L59.1,304z M95,305.1l5.1-5v-34.9l-5.1-5H74.7
			l-5.1,5v34.9l5.1,5H95z"/>
	</g>
	<g>
		<path class="st0" d="M122.3,251.1h39l10.5,10.5v41.9l-10.5,10.5h-39V251.1z M156.2,305.1l5.1-5v-34.9l-5.1-5h-23.5v45H156.2z"/>
	</g>
	<g>
		<path class="st0" d="M231.4,293.8v20.3h-10.4v-17.8l-6.5-7.1h-20.5v24.9h-10.4v-63h38.3l9.2,9.3v19.4l-6.6,6.6L231.4,293.8z
			 M193.9,280.6h23.2l3.6-3.6v-13.4l-3.6-3.6h-23.2V280.6z"/>
	</g>
	<g>
		<path class="st0" d="M243.5,303.6v-52.5H254v49l5.1,5h18.5l5.1-5v-49h10.4v52.5l-10.5,10.5h-28.6L243.5,303.6z"/>
	</g>
	<g>
		<path class="st0" d="M320.9,281.6l-21-30.5h11.7l15.1,22.2l15.1-22.2h11.7L332.7,282l21.8,32.1h-11.7l-16-23.8l-16,23.8h-11.7
			L320.9,281.6z"/>
	</g>
</g>
</svg>
