<!-- Generator: Adobe Illustrator 25.2.1, SVG Export Plug-In  -->
<svg version="1.1" xmlns="http://www.w3.org/2000/svg" xmlns:xlink="http://www.w3.org/1999/xlink" x="0px" y="0px" width="400px"
	 height="400px" viewBox="0 0 400 400" style="overflow:visible;enable-background:new 0 0 400 400;" xml:space="preserve">
<style type="text/css">
	.st0{fill:#1E3242;}
	.st1{fill:#FF702E;}
	.st2{fill:#0C45AD;}
	.st3{fill:#E9E6E9;}
</style>
<defs>
</defs>
<g>
	<rect class="st0" width="400" height="400"/>
</g>
<g>
	<g>
		<path class="st1" d="M311.6,263.7l-43.7-60.3l-43.3,60.3h-45.8l66.8-91.3l-65-88.4h45.8l41.5,57.7L309.8,84h45.8L291,173.2
			l66.4,90.6H311.6z"/>
	</g>
	<g>
		<polygon class="st2" points="357.5,263.7 196.8,43 122.3,42.8 87.1,78.8 87.1,42.8 42.5,42.8 42.5,262 90.5,262 90.5,127.1 
			132.9,83.9 180.4,83.9 311.6,263.7 		"/>
	</g>
</g>
<g>
	<path class="st3" d="M72.6,336.5v20.3H62.2v-17.8l-6.5-7.1H35.2v24.9H24.7v-63h38.3l9.2,9.3v19.4l-6.6,6.6L72.6,336.5z M35.2,323.3
		h23.2l3.6-3.6v-13.4l-3.6-3.6H35.2V323.3z"/>
	<path class="st3" d="M83.9,346.7v-42.7L94,293.9h31.1l10.2,10.2v42.7l-10.2,10.2H94L83.9,346.7z M119.8,347.9l5.1-5v-34.9l-5.1-5
		H99.4l-5.1,5v34.9l5.1,5H119.8z"/>
	<path class="st3" d="M147.1,293.9h39l10.5,10.5v41.9L186,356.9h-39V293.9z M181,347.9l5.1-5v-34.9l-5.1-5h-23.5v45H181z"/>
	<path class="st3" d="M256.1,336.5v20.3h-10.4v-17.8l-6.5-7.1h-20.5v24.9h-10.4v-63h38.3l9.2,9.3v19.4l-6.6,6.6L256.1,336.5z
		 M218.7,323.3h23.2l3.6-3.6v-13.4l-3.6-3.6h-23.2V323.3z"/>
	<path class="st3" d="M268.3,346.4v-52.5h10.4v49l5.1,5h18.5l5.1-5v-49H318v52.5l-10.5,10.5h-28.6L268.3,346.4z"/>
	<path class="st3" d="M345.7,324.4l-21-30.5h11.7l15.1,22.2l15.1-22.2h11.7l-20.9,30.9l21.8,32.1h-11.7l-16-23.8l-16,23.8h-11.7
		L345.7,324.4z"/>
</g>
</svg>

